HIERARCHY
ROOT Hips
{
	OFFSET 0.000000 71.427986 0.000000
	CHANNELS 6 Xposition Yposition Zposition Xrotation Yrotation Zrotation
	JOINT Pelvis
	{
		OFFSET 0.000000 0.000000 0.000000
		CHANNELS 3 Xrotation Yrotation Zrotation
		JOINT LeftUpLeg
		{
			OFFSET 6.797100 -2.508499 -1.318700
			CHANNELS 3 Xrotation Yrotation Zrotation
			JOINT LeftLeg
			{
				OFFSET 0.069008 -29.241863 0.690200
				CHANNELS 3 Xrotation Yrotation Zrotation
				JOINT LeftFoot
				{
					OFFSET -0.069008 -29.568123 -0.266800
					CHANNELS 3 Xrotation Yrotation Zrotation
					JOINT LeftToeBase
					{
						OFFSET 3.145500 -8.631000 16.059900
						CHANNELS 3 Xrotation Yrotation Zrotation
						End Site
						{
							OFFSET 0.000000 18.501587 0.000000
						}
					}
				}
			}
			JOINT Left_ShortSleeve
			{
				OFFSET 0.265923 -10.480953 1.153800
				CHANNELS 3 Xrotation Yrotation Zrotation
				End Site
				{
					OFFSET 1.725763 19.823879 0.000000
				}
			}
		}
		JOINT RightUpLeg
		{
			OFFSET -6.797100 -2.508499 -1.318700
			CHANNELS 3 Xrotation Yrotation Zrotation
			JOINT RightLeg
			{
				OFFSET -0.082453 -29.241932 0.688000
				CHANNELS 3 Xrotation Yrotation Zrotation
				JOINT RightFoot
				{
					OFFSET 0.082453 -29.568058 -0.264600
					CHANNELS 3 Xrotation Yrotation Zrotation
					JOINT RightToeBase
					{
						OFFSET -3.115300 -8.682800 16.113400
						CHANNELS 3 Xrotation Yrotation Zrotation
						End Site
						{
							OFFSET 0.000000 18.567114 0.000000
						}
					}
				}
			}
			JOINT Right_ShortSleeve
			{
				OFFSET -0.265923 -10.480953 1.153800
				CHANNELS 3 Xrotation Yrotation Zrotation
				End Site
				{
					OFFSET -1.725766 19.823910 0.000000
				}
			}
		}
	}
	JOINT Spine
	{
		OFFSET 0.000000 13.368103 0.470500
		CHANNELS 3 Xrotation Yrotation Zrotation
		JOINT Spine1
		{
			OFFSET 0.147000 13.837402 0.538800
			CHANNELS 3 Xrotation Yrotation Zrotation
			JOINT Spine2
			{
				OFFSET 0.168000 16.242897 -1.435500
				CHANNELS 3 Xrotation Yrotation Zrotation
				JOINT Neck
				{
					OFFSET 0.217200 18.631500 -1.679100
					CHANNELS 3 Xrotation Yrotation Zrotation
					JOINT Head
					{
						OFFSET 0.000000 6.599396 1.385900
						CHANNELS 3 Xrotation Yrotation Zrotation
						JOINT Hat
						{
							OFFSET -0.532200 27.220596 -10.096100
							CHANNELS 3 Xrotation Yrotation Zrotation
							End Site
							{
								OFFSET 0.000000 22.029861 0.000000
							}
						}
						JOINT HairD
						{
							OFFSET -10.777400 17.437393 -1.325900
							CHANNELS 3 Xrotation Yrotation Zrotation
							JOINT HairD1
							{
								OFFSET -3.290299 -11.051193 1.062200
								CHANNELS 3 Xrotation Yrotation Zrotation
								End Site
								{
									OFFSET 0.000000 11.579437 0.000000
								}
							}
						}
						JOINT HairB
						{
							OFFSET -10.777400 17.437393 1.467900
							CHANNELS 3 Xrotation Yrotation Zrotation
							JOINT HairB1
							{
								OFFSET -1.561200 -12.956299 3.590200
								CHANNELS 3 Xrotation Yrotation Zrotation
								End Site
								{
									OFFSET 0.000000 13.534866 0.000000
								}
							}
						}
						JOINT HairA
						{
							OFFSET 9.713100 17.437393 1.467900
							CHANNELS 3 Xrotation Yrotation Zrotation
							JOINT HairA1
							{
								OFFSET 1.561200 -12.956299 3.590200
								CHANNELS 3 Xrotation Yrotation Zrotation
								End Site
								{
									OFFSET 0.000000 13.534866 0.000000
								}
							}
						}
						JOINT HairC
						{
							OFFSET 9.713100 17.437393 -1.325900
							CHANNELS 3 Xrotation Yrotation Zrotation
							JOINT HairC1
							{
								OFFSET 3.290300 -11.051193 1.062200
								CHANNELS 3 Xrotation Yrotation Zrotation
								End Site
								{
									OFFSET 0.000000 11.579437 0.000000
								}
							}
						}
					}
				}
				JOINT LeftShoulder
				{
					OFFSET 5.101800 15.108002 -2.763700
					CHANNELS 3 Xrotation Yrotation Zrotation
					JOINT LeftArm
					{
						OFFSET 9.825497 2.506317 -1.597400
						CHANNELS 3 Xrotation Yrotation Zrotation
						JOINT LeftForeArm
						{
							OFFSET 21.966244 0.000000 0.000000
							CHANNELS 3 Xrotation Yrotation Zrotation
							JOINT LeftHand
							{
								OFFSET 33.879036 0.000000 0.000000
								CHANNELS 3 Xrotation Yrotation Zrotation
								JOINT LeftHandThumb1
								{
									OFFSET 6.715286 -2.359680 3.363841
									CHANNELS 3 Xrotation Yrotation Zrotation
									JOINT LeftHandThumb2
									{
										OFFSET 2.507072 -1.447464 1.447461
										CHANNELS 3 Xrotation Yrotation Zrotation
										JOINT LeftHandThumb3
										{
											OFFSET 2.898338 -1.673355 1.673357
											CHANNELS 3 Xrotation Yrotation Zrotation
											End Site
											{
												OFFSET -0.295959 3.727692 -0.131651
											}
										}
									}
								}
								JOINT LeftHandIndex1
								{
									OFFSET 14.190811 -0.254547 3.840278
									CHANNELS 3 Xrotation Yrotation Zrotation
									JOINT LeftHandIndex2
									{
										OFFSET 3.551727 0.000000 -0.000000
										CHANNELS 3 Xrotation Yrotation Zrotation
										JOINT LeftHandIndex3
										{
											OFFSET 2.894196 0.000000 0.000000
											CHANNELS 3 Xrotation Yrotation Zrotation
											End Site
											{
												OFFSET -1.000603 2.690872 0.366626
											}
										}
									}
								}
								JOINT LeftHandMiddle1
								{
									OFFSET 13.776489 0.000000 0.000000
									CHANNELS 3 Xrotation Yrotation Zrotation
									JOINT LeftHandMiddle2
									{
										OFFSET 3.438232 0.000000 0.000000
										CHANNELS 3 Xrotation Yrotation Zrotation
										JOINT LeftHandMiddle3
										{
											OFFSET 3.691551 0.000000 0.000000
											CHANNELS 3 Xrotation Yrotation Zrotation
											End Site
											{
												OFFSET -1.082298 3.499527 0.457670
											}
										}
									}
								}
								JOINT LeftHandRing1
								{
									OFFSET 13.966164 -0.268127 -3.067488
									CHANNELS 3 Xrotation Yrotation Zrotation
									JOINT LeftHandRing2
									{
										OFFSET 3.162567 0.000000 0.000000
										CHANNELS 3 Xrotation Yrotation Zrotation
										JOINT LeftHandRing3
										{
											OFFSET 3.324348 0.000000 0.000000
											CHANNELS 3 Xrotation Yrotation Zrotation
											End Site
											{
												OFFSET -0.861900 3.184998 0.405154
											}
										}
									}
								}
								JOINT LeftHandPinky1
								{
									OFFSET 13.131393 -0.168503 -5.746925
									CHANNELS 3 Xrotation Yrotation Zrotation
									JOINT LeftHandPinky2
									{
										OFFSET 2.849182 0.000000 0.000000
										CHANNELS 3 Xrotation Yrotation Zrotation
										JOINT LeftHandPinky3
										{
											OFFSET 2.805038 0.000000 0.000000
											CHANNELS 3 Xrotation Yrotation Zrotation
											End Site
											{
												OFFSET -0.882500 2.642609 0.325652
											}
										}
									}
								}
							}
							JOINT Left_Sleeve
							{
								OFFSET 6.592125 -0.646545 0.805568
								CHANNELS 3 Xrotation Yrotation Zrotation
								End Site
								{
									OFFSET -0.000179 20.275787 -0.000000
								}
							}
						}
					}
				}
				JOINT RightShoulder
				{
					OFFSET -5.731700 15.108002 -2.763700
					CHANNELS 3 Xrotation Yrotation Zrotation
					JOINT RightArm
					{
						OFFSET -9.825497 2.506317 -1.597400
						CHANNELS 3 Xrotation Yrotation Zrotation
						JOINT RightForeArm
						{
							OFFSET -21.966242 0.000000 0.000000
							CHANNELS 3 Xrotation Yrotation Zrotation
							JOINT RightHand
							{
								OFFSET -33.879032 0.000000 0.000000
								CHANNELS 3 Xrotation Yrotation Zrotation
								JOINT RightHandThumb1
								{
									OFFSET -6.715286 -2.359680 3.363841
									CHANNELS 3 Xrotation Yrotation Zrotation
									JOINT RightHandThumb2
									{
										OFFSET -2.507072 -1.447464 1.447461
										CHANNELS 3 Xrotation Yrotation Zrotation
										JOINT RightHandThumb3
										{
											OFFSET -2.898338 -1.673355 1.673357
											CHANNELS 3 Xrotation Yrotation Zrotation
											End Site
											{
												OFFSET 0.295959 3.727692 -0.131651
											}
										}
									}
								}
								JOINT RightHandIndex1
								{
									OFFSET -14.190811 -0.254547 3.840278
									CHANNELS 3 Xrotation Yrotation Zrotation
									JOINT RightHandIndex2
									{
										OFFSET -3.551727 0.000000 -0.000000
										CHANNELS 3 Xrotation Yrotation Zrotation
										JOINT RightHandIndex3
										{
											OFFSET -2.894196 0.000000 0.000000
											CHANNELS 3 Xrotation Yrotation Zrotation
											End Site
											{
												OFFSET 1.000603 2.690872 0.366626
											}
										}
									}
								}
								JOINT RightHandMiddle1
								{
									OFFSET -13.776489 0.000000 0.000000
									CHANNELS 3 Xrotation Yrotation Zrotation
									JOINT RightHandMiddle2
									{
										OFFSET -3.438232 0.000000 0.000000
										CHANNELS 3 Xrotation Yrotation Zrotation
										JOINT RightHandMiddle3
										{
											OFFSET -3.691551 0.000000 0.000000
											CHANNELS 3 Xrotation Yrotation Zrotation
											End Site
											{
												OFFSET 1.082298 3.499527 0.457670
											}
										}
									}
								}
								JOINT RightHandRing1
								{
									OFFSET -13.966164 -0.268127 -3.067488
									CHANNELS 3 Xrotation Yrotation Zrotation
									JOINT RightHandRing2
									{
										OFFSET -3.162567 0.000000 0.000000
										CHANNELS 3 Xrotation Yrotation Zrotation
										JOINT RightHandRing3
										{
											OFFSET -3.324348 0.000000 0.000000
											CHANNELS 3 Xrotation Yrotation Zrotation
											End Site
											{
												OFFSET 0.861900 3.184998 0.405154
											}
										}
									}
								}
								JOINT RightHandPinky1
								{
									OFFSET -13.131393 -0.168503 -5.746925
									CHANNELS 3 Xrotation Yrotation Zrotation
									JOINT RightHandPinky2
									{
										OFFSET -2.849182 0.000000 0.000000
										CHANNELS 3 Xrotation Yrotation Zrotation
										JOINT RightHandPinky3
										{
											OFFSET -2.805038 0.000000 0.000000
											CHANNELS 3 Xrotation Yrotation Zrotation
											End Site
											{
												OFFSET 0.882500 2.642609 0.325652
											}
										}
									}
								}
							}
							JOINT Right_Sleeve
							{
								OFFSET -6.592125 -0.646545 0.805568
								CHANNELS 3 Xrotation Yrotation Zrotation
								End Site
								{
									OFFSET 0.000179 20.275787 -0.000000
								}
							}
						}
					}
				}
				JOINT Bind_Right_JacketString
				{
					OFFSET -3.534800 11.969597 7.200700
					CHANNELS 3 Xrotation Yrotation Zrotation
					JOINT Bind_Right_JacketString1
					{
						OFFSET -0.319900 -6.102600 2.794100
						CHANNELS 3 Xrotation Yrotation Zrotation
						End Site
						{
							OFFSET 0.000000 6.719452 0.000000
						}
					}
				}
				JOINT Bind_Left_JacketString
				{
					OFFSET 2.904800 11.969597 7.200700
					CHANNELS 3 Xrotation Yrotation Zrotation
					JOINT Bind_Left_JacketString1
					{
						OFFSET 0.364800 -5.904503 3.186800
						CHANNELS 3 Xrotation Yrotation Zrotation
						End Site
						{
							OFFSET 0.000000 6.719513 0.000000
						}
					}
				}
				JOINT HairE
				{
					OFFSET 5.915200 17.612701 -11.592200
					CHANNELS 3 Xrotation Yrotation Zrotation
					JOINT HairE1
					{
						OFFSET 0.289200 -7.171898 -1.284500
						CHANNELS 3 Xrotation Yrotation Zrotation
						End Site
						{
							OFFSET 0.000000 7.291756 0.000000
						}
					}
				}
				JOINT HairF
				{
					OFFSET -0.864800 17.612701 -11.592200
					CHANNELS 3 Xrotation Yrotation Zrotation
					JOINT HairF1
					{
						OFFSET 0.000000 -14.087097 -2.127501
						CHANNELS 3 Xrotation Yrotation Zrotation
						End Site
						{
							OFFSET 0.000000 14.246841 0.000000
						}
					}
				}
				JOINT HairG
				{
					OFFSET -8.087700 17.612701 -11.592200
					CHANNELS 3 Xrotation Yrotation Zrotation
					JOINT HairG1
					{
						OFFSET -0.293600 -6.081398 -0.910100
						CHANNELS 3 Xrotation Yrotation Zrotation
						End Site
						{
							OFFSET 0.000000 6.156120 0.000000
						}
					}
				}
			}
		}
	}
	JOINT Pouch
	{
		OFFSET 0.000000 4.394501 10.847300
		CHANNELS 3 Xrotation Yrotation Zrotation
		End Site
		{
			OFFSET 0.000000 21.880577 0.000000
		}
	}
	JOINT Bag
	{
		OFFSET -13.229000 4.813004 -0.593300
		CHANNELS 3 Xrotation Yrotation Zrotation
		End Site
		{
			OFFSET 0.000000 21.880577 0.000000
		}
	}
	JOINT OccupyGuyFacialAnim_Joint
	{
		OFFSET 1.000000 -70.206398 -1.655000
		CHANNELS 3 Xrotation Yrotation Zrotation
		End Site
		{
			OFFSET 0.000000 21.880577 0.000000
		}
	}
}
MOTION
Frames: 4
Frame Time: 0.016667
-0.035245 70.332573 0.122289 2.912480 -28.986162 1.187902 -0.000000 0.000002 -0.000000 -14.992456 18.711279 9.353943 17.128636 13.225239 -0.903357 -4.454611 -4.002526 -5.088846 0.000000 -0.000000 -0.000000 0.000001 -0.000000 -0.000000 -5.445749 -1.941156 -9.245245 10.890913 9.750197 0.828838 -8.840963 -1.015273 7.075336 -0.000000 -0.000002 0.000000 -0.000000 -0.000000 -0.000000 7.836005 -0.366593 -2.678867 1.099253 -0.880537 2.383668 1.108680 -0.590404 2.446524 -3.841324 18.018990 -6.496515 -6.333203 13.021597 0.301390 0.000000 0.000000 0.000000 0.000000 0.000000 0.000000 0.000000 0.000000 0.000000 0.000000 0.000000 0.000000 0.000000 -0.000000 -0.000000 0.000000 0.000000 0.000000 0.000000 -0.000000 -0.000000 0.000000 0.000000 0.000000 0.000000 0.000000 0.000000 -0.055831 -8.758008 -0.067356 -55.250807 0.329429 -41.449379 11.606990 -65.826037 13.026188 -50.191041 12.352938 4.610859 17.563635 -5.693984 -12.929236 10.852325 26.148385 8.654083 0.000002 -0.000000 0.000002 13.978270 1.203585 -55.006047 0.372666 1.163851 -65.441873 0.000001 -0.000000 -0.000002 7.502546 1.175438 -63.755287 1.809509 1.478252 -64.569863 0.000001 0.000000 0.000004 8.574320 2.179052 -75.149006 -0.208046 1.014710 -57.856791 -0.000002 -0.000001 -0.000002 10.030094 13.637040 -84.750251 0.878822 0.065138 -64.595496 0.000001 0.000000 -0.000004 0.000001 -0.000002 -0.000001 4.849286 7.760131 5.560459 -0.933519 -2.176872 61.845628 11.299288 18.943468 -3.987572 -0.459210 6.620144 5.830246 15.788500 -2.734497 -17.205889 -2.198313 -31.113547 7.361227 0.000000 -0.000001 -0.000001 2.371240 -3.658869 8.486760 -2.131704 -2.469816 18.672202 -0.000001 0.000000 0.000002 -1.983657 -5.667164 13.658596 0.267050 -5.081396 26.987151 0.000001 -0.000000 -0.000003 -3.231396 -8.564176 11.751470 4.036744 -4.043076 33.257178 0.000001 0.000000 -0.000004 -6.483203 -11.360897 23.256427 10.728493 -2.555674 34.821278 -0.000001 -0.000000 0.000002 -0.000000 -0.000001 0.000003 -0.000000 -0.000001 -0.000000 -0.000000 0.000003 -0.000001 -0.000000 -0.000001 -0.000000 -0.000000 -0.000001 -0.000000 -0.000000 -0.000001 -0.000000 -0.000000 0.000003 -0.000000 -0.000000 -0.000001 -0.000000 -0.000000 -0.000001 -0.000000 -0.000000 -0.000001 -0.000000 -0.000000 0.000003 -0.000000 -0.000000 0.000002 -0.000000 -0.000000 0.000002 -0.000000 -0.000000 0.000002 -0.000000 
-0.046114 70.330276 0.130996 2.996388 -28.997469 1.229105 0.000000 -0.000000 0.000000 -15.063333 18.698831 9.365054 17.146970 13.224500 -0.906238 -4.471152 -4.001646 -5.094081 0.000000 0.000000 0.000000 0.000000 0.000001 -0.000000 -5.514943 -1.940853 -9.235287 10.904471 9.756692 0.826482 -8.861377 -1.004058 7.063954 -0.000000 -0.000002 0.000000 -0.000000 0.000002 -0.000000 7.836011 -0.366703 -2.678756 1.099092 -0.876631 2.383002 1.108491 -0.585945 2.445760 -3.844999 18.060115 -6.523147 -6.313232 13.058517 0.301027 0.000000 0.000000 -0.000000 0.000000 0.000000 -0.000000 0.000000 0.000000 -0.000000 0.000000 0.000000 -0.000000 -0.000000 0.000000 -0.000000 0.000000 0.000000 -0.000000 -0.000000 0.000000 -0.000000 0.000000 0.000000 -0.000000 0.000000 0.000000 -0.000000 -0.070039 -8.744130 -0.066002 -54.884350 0.118795 -41.197618 11.633717 -65.908812 13.202101 -50.544383 12.176060 4.648528 17.563635 -5.693985 -12.929235 10.852325 26.148384 8.654081 0.000004 -0.000001 0.000001 13.978269 1.203587 -55.006047 0.372662 1.163850 -65.441873 0.000001 0.000002 -0.000003 7.502546 1.175438 -63.755287 1.809508 1.478251 -64.569863 0.000001 0.000000 -0.000003 8.574321 2.179051 -75.149006 -0.208048 1.014709 -57.856791 0.000002 0.000002 -0.000002 10.030091 13.637037 -84.750258 0.878821 0.065136 -64.595496 -0.000000 -0.000000 -0.000004 0.000002 0.000002 -0.000001 4.841090 7.792212 5.599181 -0.876153 -2.203274 61.799743 11.304725 18.977105 -3.997574 -0.474806 6.723937 5.694325 15.788500 -2.734497 -17.205882 -2.198309 -31.113554 7.361229 0.000000 -0.000001 -0.000000 2.371238 -3.658872 8.486771 -2.131699 -2.469813 18.672176 0.000001 0.000001 -0.000001 -1.983650 -5.667160 13.658574 0.267036 -5.081392 26.987160 0.000001 -0.000000 -0.000001 -3.231396 -8.564178 11.751467 4.036753 -4.043075 33.257185 -0.000000 -0.000000 -0.000001 -6.483205 -11.360900 23.256439 10.728490 -2.555678 34.821250 -0.000002 0.000001 -0.000001 -0.000002 0.000000 -0.000001 0.000001 0.000002 -0.000001 0.000001 0.000000 -0.000000 0.000001 0.000002 -0.000001 0.000001 0.000002 -0.000001 0.000001 0.000002 -0.000001 0.000001 0.000000 0.000000 0.000001 0.000002 -0.000001 0.000001 0.000002 -0.000001 0.000001 0.000002 -0.000001 0.000001 0.000000 0.000000 0.000000 -0.000000 0.000000 0.000000 -0.000000 0.000000 0.000000 -0.000000 0.000000 
-0.059003 70.326622 0.140337 3.094652 -29.002155 1.272040 0.000000 -0.000000 -0.000000 -15.143265 18.656636 9.382574 17.161318 13.228022 -0.910933 -4.483016 -3.985324 -5.116087 -0.000000 0.000000 0.000000 0.000001 0.000000 -0.000000 -5.617545 -1.948029 -9.232377 10.945744 9.786796 0.818707 -8.885369 -0.996358 7.057565 0.000000 0.000000 0.000000 0.000001 0.000001 -0.000000 7.836150 -0.363782 -2.679266 1.098786 -0.869312 2.381754 1.110463 -0.579792 2.444749 -3.800853 18.130556 -6.587807 -6.340687 13.102961 0.312260 0.000000 -0.000000 -0.000000 0.000000 -0.000000 -0.000000 0.000000 -0.000000 -0.000000 0.000000 -0.000000 -0.000000 0.000000 -0.000000 -0.000000 0.000000 -0.000000 -0.000000 0.000000 -0.000000 -0.000000 0.000000 -0.000000 -0.000000 0.000000 -0.000000 -0.000000 -0.072284 -8.728837 -0.064797 -54.827575 0.180457 -41.050427 11.670724 -66.019065 13.220299 -50.602928 12.088212 4.574790 17.563638 -5.693985 -12.929235 10.852328 26.148385 8.654082 0.000002 0.000001 0.000000 13.978270 1.203586 -55.006044 0.372661 1.163849 -65.441873 0.000001 -0.000000 -0.000000 7.502546 1.175439 -63.755287 1.809507 1.478253 -64.569856 0.000002 0.000001 -0.000004 8.574322 2.179050 -75.149006 -0.208048 1.014712 -57.856791 -0.000002 -0.000001 -0.000002 10.030092 13.637039 -84.750251 0.878821 0.065138 -64.595496 0.000001 -0.000001 -0.000001 -0.000001 -0.000004 0.000003 4.839187 7.844308 5.594993 -0.848526 -2.241869 61.787291 11.331119 18.903925 -3.971959 -0.529486 6.824017 5.581326 15.788500 -2.734496 -17.205882 -2.198312 -31.113550 7.361220 0.000000 0.000002 0.000000 2.371248 -3.658864 8.486741 -2.131695 -2.469821 18.672228 -0.000000 0.000001 -0.000001 -1.983638 -5.667159 13.658585 0.267037 -5.081396 26.987174 0.000001 0.000000 0.000001 -3.231384 -8.564178 11.751471 4.036756 -4.043074 33.257219 0.000000 0.000000 -0.000004 -6.483200 -11.360906 23.256453 10.728493 -2.555669 34.821233 -0.000000 0.000000 0.000002 -0.000001 -0.000000 0.000000 0.000000 -0.000001 -0.000000 -0.000000 -0.000000 -0.000000 0.000000 -0.000001 -0.000000 0.000000 -0.000001 -0.000000 0.000000 -0.000001 -0.000000 -0.000000 -0.000000 -0.000000 0.000000 -0.000001 -0.000000 0.000000 -0.000001 -0.000000 0.000000 -0.000001 -0.000000 -0.000000 -0.000000 -0.000000 0.000000 -0.000000 -0.000000 0.000000 -0.000000 -0.000000 0.000000 -0.000000 -0.000000 
-0.071943 70.322205 0.148537 3.192084 -28.999187 1.312851 -0.000000 -0.000000 -0.000000 -15.233299 18.595110 9.397407 17.200004 13.264896 -0.921737 -4.504963 -3.971190 -5.131084 0.000000 -0.000000 -0.000000 -0.000000 -0.000000 0.000000 -5.710331 -1.964340 -9.214034 10.978625 9.773855 0.813764 -8.908462 -0.994113 7.051354 -0.000000 -0.000000 -0.000000 0.000000 0.000001 -0.000001 7.831333 -0.351577 -2.675358 1.104961 -0.859939 2.374745 1.116791 -0.570573 2.437569 -3.760157 18.197031 -6.652755 -6.378133 13.164525 0.327757 0.000000 -0.000000 0.000000 0.000000 -0.000000 0.000000 0.000000 -0.000000 0.000000 0.000000 -0.000000 0.000000 0.000000 -0.000000 0.000000 0.000000 -0.000000 0.000000 0.000000 -0.000000 0.000000 0.000000 -0.000000 0.000000 0.000000 -0.000000 0.000000 -0.091585 -8.709467 -0.063618 -54.824019 0.285217 -40.971532 11.705673 -66.122535 13.259087 -50.558498 12.058927 4.470690 17.563633 -5.693984 -12.929236 10.852322 26.148385 8.654087 0.000000 0.000001 0.000000 13.978270 1.203585 -55.006047 0.372663 1.163849 -65.441873 -0.000001 0.000002 -0.000002 7.502549 1.175439 -63.755287 1.809509 1.478250 -64.569863 -0.000000 -0.000001 -0.000001 8.574320 2.179050 -75.149006 -0.208045 1.014710 -57.856791 -0.000002 -0.000000 -0.000002 10.030094 13.637040 -84.750251 0.878821 0.065137 -64.595496 0.000000 -0.000000 -0.000002 0.000001 0.000001 0.000001 4.835598 7.900894 5.599404 -0.826514 -2.297773 61.813765 11.287215 18.781854 -4.000404 -0.510024 6.876271 5.554263 15.788501 -2.734497 -17.205882 -2.198315 -31.113550 7.361228 -0.000001 0.000000 -0.000000 2.371243 -3.658864 8.486725 -2.131696 -2.469818 18.672209 0.000000 0.000000 0.000000 -1.983648 -5.667151 13.658556 0.267050 -5.081403 26.987170 -0.000001 0.000000 -0.000001 -3.231379 -8.564174 11.751463 4.036734 -4.043074 33.257178 -0.000000 0.000001 -0.000004 -6.483195 -11.360897 23.256446 10.728487 -2.555670 34.821247 -0.000001 0.000000 0.000002 -0.000001 -0.000000 0.000000 -0.000000 -0.000001 0.000000 0.000000 0.000001 -0.000000 -0.000000 -0.000001 0.000000 -0.000000 -0.000001 0.000000 -0.000000 -0.000001 0.000000 0.000000 0.000001 -0.000000 -0.000000 -0.000001 0.000000 -0.000000 -0.000001 0.000000 -0.000000 -0.000001 0.000000 0.000000 0.000001 -0.000000 -0.000000 -0.000000 -0.000000 -0.000000 -0.000000 -0.000000 -0.000000 -0.000000 -0.000000 
